<?xml version="1.0" standalone="no"?><!DOCTYPE svg PUBLIC "-//W3C//DTD SVG 1.1//EN" "http://www.w3.org/Graphics/SVG/1.1/DTD/svg11.dtd"><svg t="1660454915625" class="icon" viewBox="0 0 1024 1024" version="1.1" xmlns="http://www.w3.org/2000/svg" p-id="1747" xmlns:xlink="http://www.w3.org/1999/xlink" width="64" height="64"><defs><style type="text/css">@font-face { font-family: feedback-iconfont; src: url("//at.alicdn.com/t/font_1031158_u69w8yhxdu.woff2?t=1630033759944") format("woff2"), url("//at.alicdn.com/t/font_1031158_u69w8yhxdu.woff?t=1630033759944") format("woff"), url("//at.alicdn.com/t/font_1031158_u69w8yhxdu.ttf?t=1630033759944") format("truetype"); }
</style></defs><path d="M206.69345706666672 620.4469973333332c81.89069226666668 21.8796512 110.55527253333332 83.2987616 85.98719146666667 184.25733226666668-35.50736106666667 111.89566719999999-91.48739413333332 162.3776821333333-167.8778848 151.49952746666668-73.70424320000001-13.693201066666667-102.3655488-77.79746773333333-85.98719146666667-192.44923946666668C57.88017706666665 660.0508576 113.86239360000002 612.2539989333333 206.69345706666672 620.4469973333332zM190.31510080000004 92.2441717333334c62.761688533333334-35.44296106666666 159.68816-53.22938666666666 290.71828906666667-53.22938666666666 147.40302826666667-2.6862474666666665 275.67705279999996 9.596701866666667 384.8864736 36.853212799999994 98.27232426666666 30.06828373333333 125.52337706666667 76.45161493333333 81.89396693333333 139.21330453333334-13.693201066666667 43.6970848-116.0554752 49.13616213333333-307.0944629333333 16.378357333333334-125.58777706666666-19.064603733333335-211.57496959999997-25.9106592-257.95830079999996-20.471581866666668-73.70205973333333 8.189723733333333-106.45877333333333 42.354506666666666-98.27014080000001 102.36336533333333 30.003883733333332 49.13616213333333 70.95141333333332 53.23266133333333 122.83822186666666 12.285131733333333 35.440777600000004-38.19688213333333 75.04463786666666-54.571964799999996 118.74499733333333-49.13616213333333 43.62941013333333-5.435802666666667 85.9839168 8.189723733333333 126.92817173333333 40.94643733333333 35.44296106666666 35.50736106666667 77.79746773333333 50.54314026666667 126.93362986666666 45.03966293333334 120.0875744-8.189723733333333 181.50668586666666 31.414135466666668 184.25733226666668 118.74172266666666 0 68.26516586666666-42.354506666666666 102.36336533333333-126.93362986666666 102.36336533333333-65.50906133333334-2.6862474666666665-110.55527253333332 9.596701866666667-135.12007893333333 36.853212799999994-30.0715584-2.6862474666666665-40.94425493333333 58.732864-32.7578048 184.25733226666668 5.442352 95.51621973333334-42.354506666666666 148.74888-143.30652906666668 159.6859776-90.08041706666666 8.1919072-155.59493546666667-19.12900373333333-196.54246506666664-81.88850986666667-30.06828373333333-38.19360746666667-23.22550293333333-80.4837152 20.471581866666668-126.93362986666666 30.007158399999998-32.7578048 42.29010666666667-60.00885866666667 36.8510304-81.89396693333333 0-40.94425493333333-49.13288746666666-66.85491306666667-147.40302826666667-77.79746773333333-131.0268544-19.064603733333335-197.94944213333335-98.26686613333332-200.63568959999998-237.48017066666668C41.5007285333333 230.1181728 92.04496 141.38033386666663 190.31510080000004 92.2441717333334zM792.2178037333333 645.0118037333333c84.5802144-21.8152512 144.6523808 13.693201066666667 180.16083306666667 106.45877333333333 35.44296106666666 106.45877333333333 21.820708266666667 174.6606304-40.94425493333333 204.73218880000002-92.83106346666666 27.251053866666666-156.99973013333334-5.500202666666667-192.4437824-98.27232426666666C708.9201333333333 746.0347754666666 726.7032842666666 675.0833621333334 792.2178037333333 645.0118037333333z" p-id="1748" fill="#0288d1"></path></svg>